# xmcd
#
# Track frame offsets:
#	150
#	24280
#	36552
#	58192
#	85172
#	109572
#	129040
#	143292
#	159050
#	178777
#	210327
#	228475
#	256705
#	267215
#	285755
#	309210
#	321995
#
# Disc length: 4580
#
# Revision: 5
# Processed by: cddbd v1.5.1PL0 Copyright (c) Steve Scherf et al.
# Submitted via: CDex 1.50
# Normalized: r3:TSWAP
#
DISCID=cc11e211
DTITLE=Various Artist - I Love Jazz Volume one
DYEAR=2001
DGENRE=Jazz
TTITLE0=Diana Krall - Let's Face The Music And Dance
TTITLE1=Oscar Peterson - The Days Of Wine And Rose
TTITLE2=Ella Fitzgerald - Mack The Knife
TTITLE3=Miles Davis - My Funny Valentine
TTITLE4=Stan Getz, Joao Gilberto and Astrud Gilberto - The Girl From Ipanema
TTITLE5=John Coltrane - Say It<Over And Over Again>
TTITLE6=Wes Montgomery - California Dreaming
TTITLE7=Makoto Ozone "The Trio" - We're All Alone
TTITLE8=Helen Merill With Clifford Brown - You'd Be So Nice To Come Home To
TTITLE9=Bill Evans - Waltz For Debby
TTITLE10=akiko - Love Is Here To Stay
TTITLE11=Chick Corea Akoustic Band - Someday My Prince Will Come
TTITLE12=Louis Armstrong - What a Wonderful World
TTITLE13=Yoshiko Kishino - Danny Boy
TTITLE14=Diana Krall - But Nor For Me
TTITLE15=Quincy Jones - Soul Bossa Nova
TTITLE16=Sadao Watanabe - My Dear Life<50th Anniversary Vocal Version>
EXTD=YEAR: 2001
EXTT0=
EXTT1=
EXTT2=
EXTT3=
EXTT4=
EXTT5=
EXTT6=
EXTT7=
EXTT8=
EXTT9=
EXTT10=
EXTT11=
EXTT12=
EXTT13=
EXTT14=
EXTT15=
EXTT16=
PLAYORDER=
